<svg xmlns="http://www.w3.org/2000/svg" xmlns:xlink="http://www.w3.org/1999/xlink" viewBox="0 0 158 52.929"><defs><style>.a{fill:none;}.b{clip-path:url(#a);}.c{fill:#ff5f1e;}</style><clipPath id="a"><path class="a" d="M0-156.086H158v52.929H0Z" transform="translate(0 156.086)"></path></clipPath></defs><g class="b"><g transform="translate(0 0)"><path class="c" d="M-154.364,0l-27.605,32.817L-183.6,25.09h-9.29l5.881,27.839L-142.487,0ZM-97.6,50.564l5.4-17.139h-5.013l2.626-8.335h19.025l-2.626,8.335h-5.013l-5.4,17.139Zm-26.227-2.175,5.122-7.134a12.084,12.084,0,0,0,2.814,2.009,6,6,0,0,0,2.632.635,3.184,3.184,0,0,0,1.567-.356,1.669,1.669,0,0,0,.835-.966q.334-1.061-2.142-1.618-.8-.191-1.241-.3a5.228,5.228,0,0,1-3.516-2.471,5.667,5.667,0,0,1-.1-4.419,12.581,12.581,0,0,1,5-6.682,14.345,14.345,0,0,1,8.391-2.575,14.027,14.027,0,0,1,4.062.574,13.8,13.8,0,0,1,3.661,1.74l-4.837,6.664a7.348,7.348,0,0,0-2.141-1.488,5.764,5.764,0,0,0-2.379-.513,3.337,3.337,0,0,0-1.555.321,1.518,1.518,0,0,0-.8.9q-.34,1.079,3.149,1.9.555.14.859.209a4.707,4.707,0,0,1,3.31,2.419,5.777,5.777,0,0,1,.1,4.419,13.038,13.038,0,0,1-5.179,6.908,14.791,14.791,0,0,1-8.655,2.68,15.389,15.389,0,0,1-4.7-.713,15.443,15.443,0,0,1-4.253-2.14m-14.056-7.082h3.747l.14-2.889q.126-2.192.293-3.375a19.141,19.141,0,0,1,.445-2.228h-.154a23.1,23.1,0,0,1-.958,2.228q-.579,1.184-1.834,3.375Zm-14.858,9.257L-135.79,25.09h10.026l.734,25.474h-9.684l.205-3.2H-141.3l-1.778,3.2Zm-15.88,0L-160.6,25.09h16.751L-146.026,32h-7.734l-.932,2.958h7l-2.056,6.526h-7l-2.862,9.083Zm-44.237,0,8.025-25.474h9.154l-8.026,25.474Zm-20.7,0,8.025-25.474h9.016L-221.946,42.3h8.76l-2.6,8.265Z" transform="translate(233.566)"></path></g></g></svg>